<?xml version="1.0" standalone="no"?>
<!DOCTYPE svg PUBLIC "-//W3C//DTD SVG 20010904//EN"
 "http://www.w3.org/TR/2001/REC-SVG-20010904/DTD/svg10.dtd">
<svg version="1.0" xmlns="http://www.w3.org/2000/svg"
 width="720.000000pt" height="720.000000pt" viewBox="0 0 720.000000 720.000000"
 preserveAspectRatio="xMidYMid meet">
<metadata>
Created by potrace 1.11, written by Peter Selinger 2001-2013
</metadata>
<g transform="translate(0.000000,720.000000) scale(0.100000,-0.100000)"
fill="#000000" stroke="none">
<path d="M0 3600 l0 -3600 3600 0 3600 0 0 3600 0 3600 -3600 0 -3600 0 0
-3600z m3279 2976 c93 -26 163 -67 241 -143 41 -40 76 -73 79 -73 2 0 39 33
81 74 88 84 171 129 283 153 298 63 611 -141 668 -435 25 -133 -5 -352 -71
-512 -105 -253 -328 -503 -623 -694 -133 -87 -180 -92 -214 -22 -26 57 -7 85
111 166 373 254 568 516 623 839 15 84 15 109 5 158 -18 90 -64 173 -129 235
-77 73 -148 101 -260 101 -74 1 -88 -2 -156 -36 -48 -24 -89 -53 -117 -84
-128 -143 -156 -162 -227 -148 -29 5 -57 28 -134 106 -131 133 -174 154 -319
154 -94 0 -111 -3 -161 -27 -156 -77 -244 -251 -219 -432 47 -332 252 -617
631 -873 113 -76 129 -100 105 -157 -18 -44 -56 -62 -98 -47 -39 14 -186 110
-283 186 -104 81 -257 241 -320 335 -135 201 -214 431 -215 617 0 146 36 254
124 370 78 104 192 175 321 203 53 12 207 4 274 -14z m2446 -2015 c80 -26 103
-64 398 -643 307 -603 308 -606 265 -687 -44 -84 -48 -85 -314 -91 -194 -4
-236 -8 -244 -20 -8 -13 -15 -329 -15 -707 0 -128 -6 -141 -73 -150 -34 -5
-44 -1 -66 20 l-26 26 0 394 c0 361 -1 397 -17 416 -18 21 -20 21 -693 23
l-675 3 -43 23 c-23 12 -56 41 -72 64 -16 22 -123 225 -237 450 -114 224 -212
407 -218 405 -14 -5 -19 -3091 -5 -3118 10 -19 30 -19 930 -19 512 0 929 4
942 9 13 5 38 24 56 42 l32 33 0 463 c0 489 2 510 45 527 44 16 99 -4 114 -43
7 -17 10 -189 7 -511 -3 -542 -1 -522 -76 -604 -82 -89 128 -81 -2145 -81
l-2010 0 -53 24 c-30 13 -68 42 -88 64 -67 79 -64 29 -64 1187 0 988 -1 1048
-18 1063 -15 13 -53 16 -244 19 -211 3 -229 4 -254 24 -52 38 -68 70 -69 133
0 54 7 73 93 247 196 396 475 926 504 955 37 37 77 58 131 69 23 4 969 7 2102
6 1691 -1 2067 -4 2100 -15z"/>
<path d="M1589 4399 c-71 -11 -79 -24 -270 -397 -100 -197 -215 -421 -255
-499 -41 -79 -74 -152 -74 -162 0 -15 9 -22 33 -26 17 -3 438 -7 934 -8 899
-2 901 -2 930 19 20 15 100 161 290 530 144 280 262 517 262 526 1 17 -52 18
-908 20 -499 2 -923 0 -942 -3z"/>
<path d="M3760 4389 c0 -21 512 -1024 534 -1047 13 -13 40 -28 62 -33 58 -13
1830 1 1850 15 13 10 -6 53 -135 304 -83 161 -201 392 -262 513 -89 178 -117
224 -142 240 -31 18 -60 19 -969 19 -678 0 -938 -3 -938 -11z"/>
<path d="M3381 3865 c-68 -132 -168 -327 -223 -433 -62 -119 -113 -206 -135
-227 -68 -66 -55 -65 -779 -65 -359 0 -659 -3 -668 -6 -14 -6 -16 -109 -16
-1065 l0 -1058 24 -28 24 -28 956 -3 956 -2 -1 1242 c-1 684 -5 1394 -8 1578
l-6 335 -124 -240z"/>
</g>
</svg>
